<svg width="27" height="36" viewBox="0 0 27 36" fill="none" xmlns="http://www.w3.org/2000/svg">
<path d="M26.2459 16.5614L3.49588 0.811434C3.23333 0.62977 2.92609 0.52339 2.60742 0.503816C2.28876 0.484239 1.97081 0.552213 1.688 0.700376C1.40519 0.848535 1.16831 1.07124 1.00299 1.34438C0.837678 1.61751 0.750232 1.93067 0.750125 2.24993L0.750122 33.7499C0.74991 34.0694 0.837122 34.3827 1.00231 34.6561C1.1675 34.9295 1.40436 35.1525 1.68722 35.3008C1.97009 35.4492 2.28816 35.5173 2.60698 35.4978C2.9258 35.4783 3.23321 35.3719 3.49587 35.1902L26.2459 19.4402C26.4776 19.2784 26.6669 19.0631 26.7976 18.8125C26.9283 18.5619 26.9966 18.2834 26.9966 18.0008C26.9966 17.7182 26.9283 17.4397 26.7976 17.1891C26.6669 16.9385 26.4776 16.7232 26.2459 16.5614Z" fill="#FFC87B"/>
</svg>
