<svg width="70" height="70" viewBox="0 0 70 70" fill="none" xmlns="http://www.w3.org/2000/svg">
<g clip-path="url(#clip0_191_7)">
<path d="M35 65.625C26.8777 65.625 19.0882 62.3984 13.3449 56.6551C7.60155 50.9118 4.375 43.1223 4.375 35C4.375 26.8777 7.60155 19.0882 13.3449 13.3449C19.0882 7.60155 26.8777 4.375 35 4.375C43.1223 4.375 50.9118 7.60155 56.6551 13.3449C62.3984 19.0882 65.625 26.8777 65.625 35C65.625 43.1223 62.3984 50.9118 56.6551 56.6551C50.9118 62.3984 43.1223 65.625 35 65.625ZM35 70C44.2826 70 53.185 66.3125 59.7487 59.7487C66.3125 53.185 70 44.2826 70 35C70 25.7174 66.3125 16.815 59.7487 10.2513C53.185 3.68749 44.2826 0 35 0C25.7174 0 16.815 3.68749 10.2513 10.2513C3.68749 16.815 0 25.7174 0 35C0 44.2826 3.68749 53.185 10.2513 59.7487C16.815 66.3125 25.7174 70 35 70V70Z" fill="#414BA3"/>
<path d="M21.875 27.3438C21.875 25.8933 22.4512 24.5023 23.4768 23.4768C24.5023 22.4512 25.8933 21.875 27.3438 21.875C28.7942 21.875 30.1852 22.4512 31.2107 23.4768C32.2363 24.5023 32.8125 25.8933 32.8125 27.3438V42.6562C32.8125 44.1067 32.2363 45.4977 31.2107 46.5232C30.1852 47.5488 28.7942 48.125 27.3438 48.125C25.8933 48.125 24.5023 47.5488 23.4768 46.5232C22.4512 45.4977 21.875 44.1067 21.875 42.6562V27.3438ZM37.1875 27.3438C37.1875 25.8933 37.7637 24.5023 38.7893 23.4768C39.8148 22.4512 41.2058 21.875 42.6562 21.875C44.1067 21.875 45.4977 22.4512 46.5232 23.4768C47.5488 24.5023 48.125 25.8933 48.125 27.3438V42.6562C48.125 44.1067 47.5488 45.4977 46.5232 46.5232C45.4977 47.5488 44.1067 48.125 42.6562 48.125C41.2058 48.125 39.8148 47.5488 38.7893 46.5232C37.7637 45.4977 37.1875 44.1067 37.1875 42.6562V27.3438Z" fill="#414BA3"/>
</g>
<defs>
<clipPath id="clip0_191_7">
<rect width="70" height="70" fill="white"/>
</clipPath>
</defs>
</svg>
