<svg width="70" height="70" viewBox="0 0 70 70" fill="none" xmlns="http://www.w3.org/2000/svg">
<g clip-path="url(#clip0_14_156)">
<path d="M35 65.625C26.8777 65.625 19.0882 62.3984 13.3449 56.6551C7.60155 50.9118 4.375 43.1223 4.375 35C4.375 26.8777 7.60155 19.0882 13.3449 13.3449C19.0882 7.60155 26.8777 4.375 35 4.375C43.1223 4.375 50.9118 7.60155 56.6551 13.3449C62.3984 19.0882 65.625 26.8777 65.625 35C65.625 43.1223 62.3984 50.9118 56.6551 56.6551C50.9118 62.3984 43.1223 65.625 35 65.625ZM35 70C44.2826 70 53.185 66.3125 59.7487 59.7487C66.3125 53.185 70 44.2826 70 35C70 25.7174 66.3125 16.815 59.7487 10.2513C53.185 3.68749 44.2826 0 35 0C25.7174 0 16.815 3.68749 10.2513 10.2513C3.68749 16.815 0 25.7174 0 35C0 44.2826 3.68749 53.185 10.2513 59.7487C16.815 66.3125 25.7174 70 35 70Z" fill="#414BA3"/>
<path d="M27.4356 22.1156C27.7934 21.9314 28.1951 21.8494 28.5965 21.8787C28.9979 21.9081 29.3834 22.0476 29.7106 22.2819L45.0231 33.2194C45.3067 33.4217 45.5378 33.6889 45.6973 33.9986C45.8568 34.3083 45.94 34.6516 45.94 35C45.94 35.3484 45.8568 35.6917 45.6973 36.0014C45.5378 36.3111 45.3067 36.5783 45.0231 36.7806L29.7106 47.7181C29.3835 47.9522 28.9982 48.0916 28.597 48.121C28.1958 48.1503 27.7943 48.0684 27.4367 47.8844C27.079 47.7004 26.779 47.4213 26.5696 47.0778C26.3603 46.7343 26.2497 46.3398 26.25 45.9375V24.0625C26.2496 23.6604 26.36 23.2659 26.5692 22.9224C26.7783 22.579 27.0781 22.2998 27.4356 22.1156Z" fill="#414BA3"/>
</g>
<defs>
<clipPath id="clip0_14_156">
<rect width="70" height="70" fill="white"/>
</clipPath>
</defs>
</svg>
